<?xml version="1.0" encoding="UTF-8" standalone="no"?>
<!-- Created with Inkscape (http://www.inkscape.org/) -->

<svg
   xmlns:dc="http://purl.org/dc/elements/1.1/"
   xmlns:cc="http://creativecommons.org/ns#"
   xmlns:rdf="http://www.w3.org/1999/02/22-rdf-syntax-ns#"
   xmlns:svg="http://www.w3.org/2000/svg"
   xmlns="http://www.w3.org/2000/svg"
   xmlns:sodipodi="http://sodipodi.sourceforge.net/DTD/sodipodi-0.dtd"
   xmlns:inkscape="http://www.inkscape.org/namespaces/inkscape"
   version="1.1"
   id="svg893"
   width="32"
   height="32"
   viewBox="0 0 32 32"
   sodipodi:docname="gg-advance.svg"
   inkscape:version="0.92.5 (2060ec1f9f, 2020-04-08)">
  <metadata
     id="metadata899">
    <rdf:RDF>
      <cc:Work
         rdf:about="">
        <dc:format>image/svg+xml</dc:format>
        <dc:type
           rdf:resource="http://purl.org/dc/dcmitype/StillImage" />
        <dc:title></dc:title>
      </cc:Work>
    </rdf:RDF>
  </metadata>
  <defs
     id="defs897" />
  <sodipodi:namedview
     pagecolor="#ffffff"
     bordercolor="#666666"
     borderopacity="1"
     objecttolerance="10"
     gridtolerance="10"
     guidetolerance="10"
     inkscape:pageopacity="0"
     inkscape:pageshadow="2"
     inkscape:window-width="2560"
     inkscape:window-height="1377"
     id="namedview895"
     showgrid="false"
     inkscape:zoom="33.564445"
     inkscape:cx="11.567172"
     inkscape:cy="14.749981"
     inkscape:window-x="-8"
     inkscape:window-y="-8"
     inkscape:window-maximized="1"
     inkscape:current-layer="svg893" />
  <path
     style="fill:#000000;stroke-width:0.15006092"
     d="M 4.1645737,27.310324 C 3.5054721,26.962855 3.0471838,26.506895 2.7243915,25.877462 2.4727081,25.386688 2.4388737,24.976001 2.4388737,22.411805 c 0,-3.47961 -0.034805,-3.405608 1.6017131,-3.405608 1.5050136,0 1.5495659,0.07025 1.5495659,2.443246 0,2.039958 0.1225908,2.529763 0.6988826,2.792339 0.515452,0.234856 21.1961647,0.234856 21.7116177,0 0.201114,-0.09163 0.440638,-0.331159 0.532272,-0.532273 0.233568,-0.512625 0.233568,-15.7968004 0,-16.3094255 C 28.441295,7.1989683 28.201767,6.9594452 28.000653,6.8678109 27.4852,6.632955 6.8044873,6.632955 6.2890353,6.8678109 5.7111982,7.1310913 5.5901527,7.6192385 5.5901527,9.686224 c 0,2.359365 -0.03831,2.417172 -1.6017131,2.417172 -1.5752919,0 -1.5495659,0.05699 -1.5495659,-3.4331547 0,-2.3585217 0.044232,-2.9718542 0.2426439,-3.3645546 C 3.0240118,4.6278166 3.475877,4.1663208 4.1210798,3.835441 4.6551604,3.5615479 5.1855256,3.5499231 17.146317,3.5499231 c 11.185937,0 12.517887,0.024961 12.948733,0.2426439 0.67787,0.3424942 1.139366,0.7943594 1.470245,1.4395634 0.272022,0.5304335 0.285518,1.018369 0.285518,10.3226656 0,9.304297 -0.01349,9.792233 -0.285518,10.322666 -0.330879,0.645204 -0.792375,1.097069 -1.470245,1.439564 -0.43117,0.217848 -1.75763,0.242029 -12.98027,0.236635 C 6.0145684,27.54834 4.5643427,27.521077 4.1645737,27.310324 Z M 13.626058,21.1155 c -0.216625,-0.239369 -0.255617,-0.515191 -0.217436,-1.538124 0.02559,-0.685549 -0.0024,-1.388141 -0.06231,-1.561317 -0.215842,-0.62449 -0.584945,-0.660532 -6.7645713,-0.660532 -6.88268976,0 -6.39378623,0.122475 -6.39378623,-1.601712 0,-1.661248 -0.4691514,-1.549567 6.50940213,-1.549567 6.3061684,0 6.6478124,-0.03493 6.9170314,-0.70724 0.05906,-0.147485 0.142335,-0.977194 0.185056,-1.843796 0.08315,-1.6869031 0.286067,-2.2509131 0.809784,-2.2509131 0.27459,0 9.640537,5.1627921 10.676415,5.8851611 0.439031,0.306157 0.550558,0.868153 0.225091,1.134257 -0.284797,0.232852 -11.156625,4.985455 -11.404489,4.985455 -0.118928,0 -0.335013,-0.131253 -0.480192,-0.291672 z"
     id="path903"
     inkscape:connector-curvature="0"
     sodipodi:nodetypes="csssssccscsssssssscsccsccscsssssssssc" />
</svg>
